<?xml version="1.0" standalone="no"?>
<!DOCTYPE svg PUBLIC "-//W3C//DTD SVG 20010904//EN"
 "http://www.w3.org/TR/2001/REC-SVG-20010904/DTD/svg10.dtd">
<svg version="1.0" xmlns="http://www.w3.org/2000/svg"
 width="1085.000000pt" height="1280.000000pt" viewBox="0 0 1085.000000 1280.000000"
 preserveAspectRatio="xMidYMid meet">
<metadata>
Created by potrace 1.15, written by Peter Selinger 2001-2017
</metadata>
<g transform="translate(0.000000,1280.000000) scale(0.100000,-0.100000)"
fill="#000000" stroke="none">
<path d="M3130 12025 c-306 -52 -571 -180 -727 -349 -46 -51 -78 -100 -113
-171 -56 -115 -72 -185 -71 -302 0 -73 7 -105 50 -236 l50 -152 -24 -70 c-42
-121 -30 -214 37 -290 47 -53 116 -89 214 -111 41 -9 74 -20 74 -24 0 -5 28
-43 61 -86 l62 -77 -6 -88 c-29 -398 -190 -625 -477 -673 -94 -15 -680 -142
-684 -147 -1 -2 -28 -56 -60 -120 -90 -183 -167 -292 -329 -468 -103 -112
-170 -175 -221 -209 -41 -28 -80 -52 -88 -54 -10 -4 -10 -10 0 -33 12 -25 11
-31 -11 -54 -352 -386 -660 -774 -718 -905 -28 -65 -35 -189 -14 -261 77 -267
422 -706 995 -1268 212 -208 222 -220 211 -243 -28 -62 -1 -140 82 -230 116
-128 299 -236 448 -265 80 -16 121 -3 182 57 26 26 47 44 47 40 0 -8 -241
-900 -410 -1516 l-92 -335 -143 -1410 c-92 -908 -149 -1427 -159 -1459 -11
-35 -16 -87 -16 -178 0 -120 1 -128 19 -128 11 0 23 -5 27 -11 3 -6 27 -20 51
-31 42 -19 69 -20 527 -20 504 0 534 2 597 45 47 32 64 70 62 142 -1 33 -7
699 -12 1480 -9 1268 -8 1426 5 1475 12 41 266 851 385 1226 9 31 11 31 47 23
20 -5 84 -9 142 -9 l106 -1 207 -557 207 -557 -1 -815 c-1 -448 -4 -1141 -8
-1540 -3 -399 -3 -744 0 -768 7 -54 34 -90 85 -116 38 -20 56 -21 504 -22 479
-1 538 3 594 40 14 9 33 28 42 42 38 57 36 179 -4 233 -11 16 -23 51 -26 82
-4 30 -33 452 -66 939 -33 487 -78 1135 -99 1440 l-38 555 -117 355 c-65 195
-184 558 -266 805 -82 248 -152 459 -156 470 -5 11 17 -6 47 -39 51 -54 58
-59 107 -64 197 -18 547 180 624 354 18 42 19 51 7 86 -7 23 -9 42 -3 47 5 5
70 59 144 121 275 228 431 369 654 593 l229 229 46 -12 c190 -48 446 -75 626
-66 291 14 502 68 815 211 267 122 482 188 719 221 89 12 162 15 311 11 390
-11 637 -83 1295 -377 409 -183 621 -264 827 -314 85 -21 273 -56 301 -56 4 0
7 769 7 1710 l0 1709 -57 39 c-324 219 -744 451 -1008 557 -555 223 -1042 253
-1493 89 -200 -72 -399 -187 -592 -340 -113 -90 -333 -312 -394 -399 -232
-328 -488 -510 -816 -582 -101 -22 -340 -22 -475 1 -245 41 -465 114 -995 331
-285 116 -522 201 -675 240 -123 32 -312 65 -368 65 -28 0 -62 42 -106 128
-23 45 -65 198 -75 272 l-6 45 47 17 c27 10 76 34 111 55 68 40 206 152 198
161 -3 2 5 25 18 51 44 89 51 135 51 341 -1 294 -24 394 -120 514 -55 70 -67
88 -41 67 11 -9 15 -7 20 11 13 51 2 123 -15 96 -6 -8 -7 -1 -3 18 3 17 0 58
-7 90 -7 33 -12 62 -11 66 1 4 -10 46 -24 94 -45 158 -132 295 -244 389 -62
53 -190 111 -282 130 -91 18 -253 18 -358 0z m-1316 -4555 c364 -719 498
-1265 425 -1732 -7 -43 -15 -78 -18 -78 -3 0 -15 14 -26 30 -44 66 -216 167
-374 220 -50 17 -82 21 -145 18 -45 -2 -88 -7 -97 -11 -13 -7 -81 109 -374
638 l-358 646 20 22 c11 12 116 132 233 267 116 135 217 247 223 249 7 2 62
56 122 120 l110 116 82 -160 c46 -88 125 -243 177 -345z m2876 -438 c173 -118
333 -215 503 -306 58 -31 85 -51 80 -59 -27 -45 -586 -894 -592 -900 -4 -4
-25 0 -47 9 -124 52 -478 -57 -597 -185 -26 -28 -54 -51 -62 -51 -9 0 -21 22
-31 57 -24 81 -14 279 20 428 67 288 222 732 411 1178 l16 38 62 -46 c34 -25
141 -98 237 -163z"/>
<path d="M3812 9921 c-10 -6 -11 -16 -4 -42 l10 -34 1 31 c1 16 6 35 13 42 14
14 0 16 -20 3z"/>
</g>
</svg>
